<svg width="193" height="459" viewBox="0 0 193 459" fill="none" xmlns="http://www.w3.org/2000/svg">
<path d="M2.67585 437.508V402.079L189.985 380.872V425.782L134.06 432.269V450.233L189.985 456.72V458.716L2.67585 437.508ZM132.454 450.233V432.269L56.4603 441.001V441.5L132.454 450.233Z" fill="white"/>
<path d="M2.67585 378.536V332.628C2.67585 302.938 19.2661 285.722 48.7003 285.722H50.0382C78.1346 285.722 93.922 300.193 93.922 326.141H94.4572C94.4572 300.692 112.92 283.227 140.482 283.227H143.96C172.859 283.227 189.985 301.94 189.985 332.628V378.536H2.67585ZM4.28137 333.626H93.3869V333.127C93.3869 330.632 92.8517 330.632 89.1055 330.632H8.56269C4.81652 330.632 4.28137 330.632 4.28137 333.127V333.626ZM94.9924 333.626H188.379V333.127C188.379 330.632 187.844 330.632 184.098 330.632H99.2737C95.5275 330.632 94.9924 330.632 94.9924 333.127V333.626Z" fill="white"/>
<path d="M49.5031 280.832C17.1254 280.832 6.07967e-06 264.614 6.07967e-06 235.173C6.07967e-06 205.233 17.9281 188.018 49.5031 188.018H142.89C174.732 188.018 192.661 205.233 192.661 235.173C192.661 264.614 175.268 280.832 142.89 280.832H49.5031ZM5.88686 235.922H186.774C189.717 235.922 191.055 235.423 191.055 234.425C191.055 233.427 189.717 232.928 186.774 232.928H5.88686C2.67585 232.928 1.60551 233.427 1.60551 234.425C1.60551 235.423 2.67585 235.922 5.88686 235.922Z" fill="white"/>
<path d="M2.67585 185.076V140.166H186.774C189.717 140.166 191.055 139.667 191.055 138.669C191.055 137.671 189.717 137.172 186.774 137.172H2.67585L2.67585 92.2624H142.89C174.732 92.2624 192.661 109.228 192.661 139.418C192.661 169.108 175.268 185.076 142.89 185.076H2.67585Z" fill="white"/>
<path d="M2.67585 -4.14848e-05H4.28137V22.4549H189.985V67.3649H4.28137V89.8199H2.67585V-4.14848e-05Z" fill="white"/>
</svg>
