<svg width="607" height="574" viewBox="0 0 607 574" fill="none" xmlns="http://www.w3.org/2000/svg">
<path d="M537.521 195.701C543.3 181.405 552.895 205.223 543.536 230.904L543.32 231.413C535.554 249.657 526.404 267.068 516.016 282.105C496.224 224.025 499.199 193.752 533.356 168.109C538.737 164.069 555.253 151.817 529.604 165.349C498.873 181.561 464.197 215.577 495.04 298.998C470.899 299.438 456.398 283.807 471.012 280.958C484.659 278.296 472.863 277.182 468.701 277.569C452.749 279.048 463.398 307.632 492.676 309.438C486.99 314.638 481.049 319.07 474.87 322.571C473.623 323.277 473.122 324.862 473.803 326.121C474.487 327.387 476.068 327.846 477.413 327.331C481.704 325.689 486.451 325.5 490.904 326.837L493.16 327.751C493.261 327.792 493.358 327.845 493.447 327.909C495.135 329.109 496.726 330.327 498.221 331.559C476.409 348.296 477.568 373.559 490.196 366.101C493.484 364.16 502.083 357.153 490.853 362.567C478.64 368.454 484.958 349.455 504.118 336.967C507.927 340.884 510.829 344.846 512.873 348.685C509.642 351.74 504.813 352.643 500.609 351.365C499.506 351.03 496.087 349.02 500.8 352.299C504.957 355.191 510.403 357.541 514.908 353.198C519.838 366.568 513.934 377.505 499.554 378.256C492.287 378.636 491.143 381.372 497.452 383.655C517.062 390.751 535.607 367.257 519.533 337.025C573.885 366.157 632.707 184.61 593.71 1.95396C592.641 -1.31368 587.554 -0.201973 587.931 3.21242C590.692 28.2378 568.5 160.964 553.598 204.534L553.489 204.849C549.875 188.982 538.857 181.694 535.526 192.483C534.344 196.311 532.619 207.83 537.521 195.701Z" fill="#820300"/>
<path d="M535.797 309.725C536.96 317.933 531.227 325.519 522.991 326.669C514.755 327.819 507.136 322.097 505.973 313.889C504.81 305.681 510.543 298.095 518.779 296.945C527.015 295.795 534.634 301.517 535.797 309.725Z" fill="#D9D9D9"/>
<path d="M528.341 310.766C528.923 314.87 526.056 318.663 521.938 319.238C517.82 319.813 514.011 316.952 513.429 312.848C512.848 308.744 515.714 304.951 519.832 304.376C523.95 303.801 527.76 306.662 528.341 310.766Z" fill="black"/>
<path d="M198.962 508.955C184.298 513.722 207.389 524.955 233.66 517.41L234.183 517.23C252.924 510.756 270.931 502.843 286.655 493.528C230.098 469.734 199.691 470.589 171.728 502.874C167.323 507.961 153.948 523.582 169.237 498.939C187.553 469.414 223.905 437.195 304.971 473.783C307.094 449.73 292.513 434.175 288.65 448.555C285.044 461.983 284.755 450.138 285.431 446.012C288.02 430.202 315.791 442.82 315.55 472.153C321.135 466.843 325.97 461.225 329.893 455.305C330.685 454.111 332.3 453.722 333.51 454.489C334.724 455.26 335.072 456.868 334.464 458.175C332.527 462.341 332.007 467.063 333.031 471.598L333.785 473.912C333.819 474.016 333.865 474.117 333.922 474.21C335.002 475.978 336.106 477.65 337.23 479.227C355.449 458.635 380.569 461.554 372.249 473.631C370.083 476.775 362.493 484.865 368.677 474.039C375.401 462.268 356.009 467.245 342.214 485.487C345.856 489.56 349.605 492.731 353.293 495.038C356.565 492.028 357.803 487.274 356.822 482.991C356.565 481.867 354.798 478.317 357.74 483.247C360.335 487.595 362.299 493.191 357.653 497.383C370.646 503.234 381.968 498.107 383.721 483.814C384.607 476.591 387.416 475.641 389.253 482.094C394.964 502.151 370.234 519.012 341.197 500.868C366.466 557.12 181.258 603.135 1.76755 551.491C-1.41761 550.197 0.0462489 545.2 3.42605 545.814C28.1979 550.314 162.149 537.434 206.652 525.608L206.974 525.521C191.398 520.809 184.896 509.31 195.891 506.739C199.793 505.827 211.403 504.91 198.962 508.955Z" fill="#820300"/>
<path d="M312.829 515.189C320.936 516.921 328.903 511.731 330.625 503.596C332.346 495.46 327.169 487.46 319.062 485.727C310.956 483.995 302.988 489.185 301.267 497.32C299.546 505.456 304.722 513.456 312.829 515.189Z" fill="#D9D9D9"/>
<path d="M314.387 507.823C318.441 508.69 322.424 506.095 323.285 502.027C324.146 497.959 321.558 493.959 317.504 493.093C313.451 492.226 309.467 494.821 308.606 498.889C307.746 502.957 310.334 506.957 314.387 507.823Z" fill="black"/>
<path d="M408.683 396.079C408.683 393.318 410.921 391.081 413.682 391.081L453.676 391.089C456.437 391.089 458.675 393.328 458.676 396.089L458.683 436.083C458.684 438.844 456.446 441.082 453.685 441.081L413.691 441.074C410.93 441.073 408.691 438.835 408.691 436.074L408.683 396.079Z" fill="#D9D9D9"/>
<path d="M421.183 406.08C421.183 404.7 422.302 403.581 423.682 403.581L443.68 403.585C445.06 403.585 446.179 404.704 446.18 406.085L446.183 426.082C446.184 427.462 445.065 428.581 443.684 428.581L423.687 428.577C422.307 428.577 421.187 427.458 421.187 426.077L421.183 406.08Z" fill="black"/>
</svg>
