<svg width="87" height="149" viewBox="0 0 87 149" fill="none" xmlns="http://www.w3.org/2000/svg">
<path d="M67.7169 51.7861C67.7129 44.77 75.8 53.1906 76.2363 65.6207L76.2321 65.8725C76.0726 74.8932 75.1893 83.7975 73.3813 91.9105C55.1771 70.7638 51.2754 57.4811 61.27 40.8496C62.8446 38.2293 67.7025 30.2493 59.223 40.3227C49.0638 52.3916 40.2759 72.6453 67.439 102.608C57.3654 106.899 48.6095 102.768 54.2679 99.0802C59.5519 95.6361 54.4036 97.1721 52.7195 98.043C46.2656 101.381 55.6068 111.633 68.222 107.416C66.7165 110.578 64.9734 113.459 62.9716 115.987C62.5676 116.497 62.6267 117.251 63.1274 117.667C63.6304 118.085 64.373 118.01 64.851 117.564C66.3754 116.141 68.3384 115.254 70.4381 115.061C72.5043 114.871 74.5628 115.366 76.3033 116.451C76.9053 116.826 77.7118 116.76 78.1656 116.215L78.7497 115.514C78.8192 115.43 78.8797 115.335 78.9259 115.236C94.0645 78.7668 86.6312 25.1435 67.0661 0.467834C66.0609 -0.729599 64.1116 0.604782 64.851 1.98177C70.2707 12.0742 74.8275 31.8568 75.9783 52.7801L75.9861 52.9317C71.7664 46.8495 65.8944 45.6471 66.3303 50.7674C66.4849 52.5842 67.7203 57.7388 67.7169 51.7861Z" fill="#D9D9D9"/>
<path d="M54.394 139.957L53.6918 140.54C53.6082 140.609 53.5124 140.67 53.414 140.716C14.0449 157.989 -8.43911 131.528 4.34224 114.088C7.93935 109.18 10.0387 110.876 8.52338 117.3C5.52505 130.012 13.5765 137.953 26.5067 137.084C23.8587 132.049 27.2949 127.91 30.8772 125.031C34.9389 121.768 32.3145 124.229 31.741 125.104C29.5573 128.437 29.1188 132.872 30.9652 136.467C34.8384 135.67 39.0357 134.159 43.4248 131.845C37.3868 111.967 22.3997 101.602 24.4377 113.742C26.3119 124.905 22.3775 115.624 21.5173 112.265C18.2135 99.3621 40.5719 104.82 49.6472 128.096C51.1409 127.084 52.6487 125.98 54.1659 124.782C54.6768 124.378 55.4316 124.437 55.8479 124.937C56.2662 125.44 56.191 126.181 55.7443 126.659C54.3197 128.181 53.4315 130.142 53.2384 132.239C53.0484 134.302 53.5443 136.358 54.6299 138.097C55.0054 138.698 54.9395 139.503 54.394 139.957Z" fill="#D9D9D9"/>
<path d="M72.2052 148.78C64.0343 148.78 57.4105 142.165 57.4105 134.004C57.4105 125.843 64.0343 119.228 72.2052 119.228C80.3762 119.228 87 125.843 87 134.004C87 142.165 80.3762 148.78 72.2052 148.78Z" fill="#D9D9D9"/>
<path d="M72.2052 142.356C67.5869 142.356 63.843 138.616 63.843 134.004C63.843 129.391 67.5869 125.652 72.2052 125.652C76.8236 125.652 80.5675 129.391 80.5675 134.004C80.5675 138.616 76.8236 142.356 72.2052 142.356Z" fill="black"/>
</svg>
