<svg width="193" height="459" viewBox="0 0 193 459" fill="none" xmlns="http://www.w3.org/2000/svg">
<path d="M6.22633 425.105H187.113C190.057 425.105 191.395 424.732 191.395 423.985C191.395 423.238 190.057 422.864 187.113 422.864H99.3456V389.254H143.229C175.072 389.254 193 402.138 193 424.545C193 446.578 175.607 458.716 143.229 458.716H49.8425C17.4649 458.716 0.339478 446.578 0.339478 424.545C0.339478 402.138 18.2676 389.254 49.8425 389.254H93.9939V422.864H6.22633C3.01532 422.864 1.94498 423.238 1.94498 423.985C1.94498 424.732 3.01532 425.105 6.22633 425.105Z" fill="white"/>
<path d="M49.8425 387.052C17.4649 387.052 0.339478 374.915 0.339478 352.882C0.339478 330.475 18.2676 317.591 49.8425 317.591H143.229C175.072 317.591 193 330.475 193 352.882C193 374.915 175.607 387.052 143.229 387.052H49.8425ZM6.22633 353.442H187.113C190.057 353.442 191.395 353.068 191.395 352.322C191.395 351.575 190.057 351.201 187.113 351.201H6.22633C3.01532 351.201 1.94498 351.575 1.94498 352.322C1.94498 353.068 3.01532 353.442 6.22633 353.442Z" fill="white"/>
<path d="M3.01532 254.143V253.023H190.324V286.634L10.7753 313.895V314.269H190.324V315.389H3.01532V281.405L176.945 254.517V254.143H3.01532Z" fill="white"/>
<path d="M3.01532 183.99H4.62083V200.795H190.324V234.406H4.62083V251.211H3.01532V183.99Z" fill="white"/>
<path d="M3.01532 174.257V147.742L190.324 131.87V165.481L134.399 170.336V183.78L190.324 188.635V190.129L3.01532 174.257ZM132.794 183.78V170.336L56.7997 176.871V177.245L132.794 183.78Z" fill="white"/>
<path d="M6.22633 99.2474H187.113C190.057 99.2474 191.395 98.874 191.395 98.1271C191.395 97.3802 190.057 97.0067 187.113 97.0067H99.3456V63.3962H143.229C175.072 63.3962 193 76.2802 193 98.6873C193 120.721 175.607 132.858 143.229 132.858H49.8425C17.4649 132.858 0.339478 120.721 0.339478 98.6873C0.339478 76.2802 18.2676 63.3962 49.8425 63.3962H93.9939V97.0067H6.22633C3.01532 97.0067 1.94498 97.3802 1.94498 98.1271C1.94498 98.874 3.01532 99.2474 6.22633 99.2474Z" fill="white"/>
<path d="M3.01532 0H4.62083V16.8053H190.324V50.4158H4.62083V67.2211H3.01532V0Z" fill="white"/>
</svg>
