<svg width="194" height="459" viewBox="0 0 194 459" fill="none" xmlns="http://www.w3.org/2000/svg">
<path d="M3.34558 458.716V429.277C3.34558 410.078 21.0061 399.199 60.6086 399.199H61.1437C102.352 399.199 115.463 408.958 115.463 429.597V429.917H190.654V458.716H3.34558ZM4.95109 429.917H113.858V429.597C113.858 427.997 113.323 427.997 109.576 427.997H8.69727C5.48625 427.997 4.95109 427.997 4.95109 429.597V429.917Z" fill="white"/>
<path d="M3.34558 397.937V368.499C3.34558 349.46 19.4006 338.42 53.3838 338.42H54.7217C86.2967 338.42 102.619 347.86 102.619 362.739H103.154C103.154 348.02 121.885 338.42 150.517 338.42H152.658C166.839 338.42 179.148 338.26 190.654 336.82V365.619C179.148 367.059 166.839 367.219 152.39 367.219H107.971C104.225 367.219 103.69 367.219 103.69 368.819V369.139H190.654V397.937H3.34558ZM4.95109 369.139H102.084V368.819C102.084 367.219 101.549 367.219 97.8028 367.219H9.23243C5.48625 367.219 4.95109 367.219 4.95109 368.819V369.139Z" fill="white"/>
<path d="M50.1728 336.534C17.7951 336.534 0.669739 326.135 0.669739 307.256C0.669739 288.057 18.5979 277.017 50.1728 277.017H143.56C175.402 277.017 193.33 288.057 193.33 307.256C193.33 326.135 175.937 336.534 143.56 336.534H50.1728ZM6.55659 307.736H187.443C190.387 307.736 191.725 307.416 191.725 306.776C191.725 306.136 190.387 305.816 187.443 305.816H6.55659C3.34558 305.816 2.27524 306.136 2.27524 306.776C2.27524 307.416 3.34558 307.736 6.55659 307.736Z" fill="white"/>
<path d="M3.34558 244.413V215.614H143.56C175.402 215.614 193.33 226.494 193.33 246.013C193.33 265.212 175.937 275.131 143.56 275.131H101.014V246.333H187.443C190.387 246.333 191.725 246.013 191.725 245.373C191.725 244.733 190.387 244.413 187.443 244.413H3.34558Z" fill="white"/>
<path d="M4.95109 172.13V184.929H91.1132V172.13H92.7187V184.929H189.049V172.13H190.654V213.728H3.34558V172.13H4.95109Z" fill="white"/>
<path d="M6.55659 141.338H187.443C190.387 141.338 191.725 141.018 191.725 140.378C191.725 139.738 190.387 139.418 187.443 139.418H99.6759V110.619H143.56C175.402 110.619 193.33 121.659 193.33 140.858C193.33 159.737 175.937 170.136 143.56 170.136H50.1728C17.7951 170.136 0.669739 159.737 0.669739 140.858C0.669739 121.659 18.5979 110.619 50.1728 110.619H94.3242V139.418H6.55659C3.34558 139.418 2.27524 139.738 2.27524 140.378C2.27524 141.018 3.34558 141.338 6.55659 141.338Z" fill="white"/>
<path d="M3.34558 56.2997H4.95109V70.699H190.654V99.4975H4.95109V113.897H3.34558V56.2997Z" fill="white"/>
<path d="M67.5658 0V28.7985H6.55659C3.61316 28.7985 2.27524 29.1185 2.27524 29.7585C2.27524 30.3985 3.61316 30.7185 6.55659 30.7185H61.6789C69.4389 30.7185 70.7768 30.3985 82.2829 18.0791L86.2967 13.7593C96.4648 2.87986 108.774 0 140.081 0H143.56C175.402 0 193.33 11.0394 193.33 30.2385C193.33 49.2775 175.937 59.517 143.56 59.517H126.434V30.7185H187.443C190.387 30.7185 191.725 30.3985 191.725 29.7585C191.725 29.1185 190.387 28.7985 187.711 28.7985H131.786C124.026 28.7985 122.956 29.1185 112.52 40.158L107.703 45.2777C97.2676 56.4772 83.8884 59.517 52.5811 59.517H50.1728C17.7951 59.517 0.669739 49.1175 0.669739 30.2385C0.669739 11.0394 18.5979 0 50.1728 0H67.5658Z" fill="white"/>
</svg>
