<svg width="194" height="459" viewBox="0 0 194 459" fill="none" xmlns="http://www.w3.org/2000/svg">
<path d="M67.4006 384.609V420.467H6.39143C3.448 420.467 2.11008 420.866 2.11008 421.662C2.11008 422.459 3.448 422.858 6.39143 422.858H61.5138C69.2737 422.858 70.6116 422.459 82.1177 407.12L86.1315 401.741C96.2997 388.195 108.609 384.609 139.916 384.609H143.394C175.237 384.609 193.165 398.355 193.165 422.26C193.165 445.966 175.772 458.716 143.394 458.716H126.269V422.858H187.278C190.222 422.858 191.56 422.459 191.56 421.662C191.56 420.866 190.222 420.467 187.546 420.467H131.621C123.861 420.467 122.791 420.866 112.355 434.611L107.538 440.986C97.1024 454.931 83.7232 458.716 52.4159 458.716H50.0076C17.63 458.716 0.504578 445.767 0.504578 422.26C0.504578 398.355 18.4327 384.609 50.0076 384.609H67.4006Z" fill="white"/>
<path d="M50.0076 382.261C17.63 382.261 0.504578 369.312 0.504578 345.805C0.504578 321.9 18.4327 308.154 50.0076 308.154H143.394C175.237 308.154 193.165 321.9 193.165 345.805C193.165 369.312 175.772 382.261 143.394 382.261H50.0076ZM6.39143 346.403H187.278C190.222 346.403 191.56 346.004 191.56 345.207C191.56 344.411 190.222 344.012 187.278 344.012H6.39143C3.18042 344.012 2.11008 344.411 2.11008 345.207C2.11008 346.004 3.18042 346.403 6.39143 346.403Z" fill="white"/>
<path d="M6.39143 269.948H187.278C190.222 269.948 191.56 269.549 191.56 268.753C191.56 267.956 190.222 267.557 187.278 267.557H99.5107V231.699H143.394C175.237 231.699 193.165 245.445 193.165 269.35C193.165 292.857 175.772 305.806 143.394 305.806H50.0076C17.63 305.806 0.504578 292.857 0.504578 269.35C0.504578 245.445 18.4327 231.699 50.0076 231.699H94.159V267.557H6.39143C3.18042 267.557 2.11008 267.956 2.11008 268.753C2.11008 269.549 3.18042 269.948 6.39143 269.948Z" fill="white"/>
<path d="M3.18042 229.351V193.493H190.489V229.351H3.18042Z" fill="white"/>
<path d="M3.18042 174.691V146.403L190.489 129.47V165.328L134.564 170.507V184.851L190.489 190.03V191.624L3.18042 174.691ZM132.959 184.851V170.507L56.9648 177.48V177.878L132.959 184.851Z" fill="white"/>
<path d="M3.18042 127.605V91.7475H188.884V75.8106H190.489V127.605H3.18042Z" fill="white"/>
<path d="M67.4006 0V35.858H6.39143C3.448 35.858 2.11008 36.2564 2.11008 37.0532C2.11008 37.8501 3.448 38.2485 6.39143 38.2485H61.5138C69.2737 38.2485 70.6116 37.8501 82.1177 22.5108L86.1315 17.1321C96.2997 3.5858 108.609 0 139.916 0H143.394C175.237 0 193.165 13.7456 193.165 37.6509C193.165 61.3569 175.772 74.1064 143.394 74.1064H126.269V38.2485H187.278C190.222 38.2485 191.56 37.8501 191.56 37.0532C191.56 36.2564 190.222 35.858 187.546 35.858H131.621C123.861 35.858 122.791 36.2564 112.355 50.0019L107.538 56.3767C97.1024 70.3214 83.7232 74.1064 52.4159 74.1064H50.0076C17.63 74.1064 0.504578 61.1577 0.504578 37.6509C0.504578 13.7456 18.4327 0 50.0076 0H67.4006Z" fill="white"/>
</svg>
