<svg width="194" height="459" viewBox="0 0 194 459" fill="none" xmlns="http://www.w3.org/2000/svg">
<path d="M3.51071 364.245H5.11622V387.862H190.82V435.098H5.11622V458.716H3.51071V364.245Z" fill="white"/>
<path d="M50.3379 369.522C17.9603 369.522 0.834869 352.464 0.834869 321.499C0.834869 290.008 18.763 271.902 50.3379 271.902H143.725C175.567 271.902 193.495 290.008 193.495 321.499C193.495 352.464 176.102 369.522 143.725 369.522H50.3379ZM6.72172 322.286H187.609C190.552 322.286 191.89 321.761 191.89 320.712C191.89 319.662 190.552 319.137 187.609 319.137H6.72172C3.51071 319.137 2.44037 319.662 2.44037 320.712C2.44037 321.761 3.51071 322.286 6.72172 322.286Z" fill="white"/>
<path d="M50.3379 268.808C17.9603 268.808 0.834869 251.751 0.834869 220.785C0.834869 189.295 18.763 171.188 50.3379 171.188H143.725C175.567 171.188 193.495 189.295 193.495 220.785C193.495 251.751 176.102 268.808 143.725 268.808H50.3379ZM6.72172 221.572H187.609C190.552 221.572 191.89 221.048 191.89 219.998C191.89 218.948 190.552 218.423 187.609 218.423H6.72172C3.51071 218.423 2.44037 218.948 2.44037 219.998C2.44037 221.048 3.51071 221.572 6.72172 221.572Z" fill="white"/>
<path d="M3.51071 168.094V120.859H189.214V99.865H190.82V168.094H3.51071Z" fill="white"/>
<path d="M67.7309 0V47.2355H6.72172C3.77829 47.2355 2.44037 47.7604 2.44037 48.81C2.44037 49.8597 3.77829 50.3846 6.72172 50.3846H61.844C69.604 50.3846 70.9419 49.8597 82.448 29.6534L86.4618 22.5681C96.63 4.72355 108.939 0 140.246 0H143.725C175.567 0 193.495 18.107 193.495 49.5973C193.495 80.8252 176.102 97.6201 143.725 97.6201H126.599V50.3846H187.609C190.552 50.3846 191.89 49.8597 191.89 48.81C191.89 47.7604 190.552 47.2355 187.876 47.2355H131.951C124.191 47.2355 123.121 47.7604 112.685 65.8673L107.869 74.2647C97.4327 92.6341 84.0535 97.6201 52.7462 97.6201H50.3379C17.9603 97.6201 0.834869 80.5628 0.834869 49.5973C0.834869 18.107 18.763 0 50.3379 0H67.7309Z" fill="white"/>
</svg>
